<svg xmlns="http://www.w3.org/2000/svg" xmlns:xlink="http://www.w3.org/1999/xlink" zoomAndPan="magnify" preserveAspectRatio="xMidYMid meet" version="1.0" viewBox="60.26 138.76 248.25 88.51"><defs><g/><clipPath id="4814901813"><path d="M 60.527344 173.265625 L 147.527344 173.265625 L 147.527344 214.515625 L 60.527344 214.515625 Z M 60.527344 173.265625 " clip-rule="nonzero"/></clipPath><clipPath id="2aa3d67ccc"><rect x="0" width="167" y="0" height="79"/></clipPath><clipPath id="4c578be501"><path d="M 60.527344 138.683594 L 147.527344 138.683594 L 147.527344 179.933594 L 60.527344 179.933594 Z M 60.527344 138.683594 " clip-rule="nonzero"/></clipPath></defs><g clip-path="url(#4814901813)"><path fill="#616566" d="M 70.550781 227.265625 L 103.894531 193.921875 L 137.238281 227.265625 L 147.527344 216.972656 L 103.894531 173.339844 L 60.257812 216.972656 Z M 70.550781 227.265625 " fill-opacity="1" fill-rule="nonzero"/></g><g transform="matrix(1, 0, 0, 1, 150, 148)"><g clip-path="url(#2aa3d67ccc)"><g fill="#616566" fill-opacity="1"><g transform="translate(0.7697, 60.588456)"><g><path d="M 13.46875 0 L 6.59375 0 L 6.59375 -56.359375 L 13.46875 -56.359375 Z M 13.46875 0 "/></g></g></g><g fill="#616566" fill-opacity="1"><g transform="translate(16.401528, 60.588456)"><g><path d="M 44.046875 -21.390625 C 44.046875 -21.035156 44.035156 -20.664062 44.015625 -20.28125 C 44.003906 -19.894531 43.972656 -19.332031 43.921875 -18.59375 L 10.109375 -18.59375 C 10.398438 -15.875 11.195312 -13.515625 12.5 -11.515625 C 13.8125 -9.515625 15.453125 -7.972656 17.421875 -6.890625 C 19.398438 -5.816406 21.507812 -5.28125 23.75 -5.28125 C 26.488281 -5.28125 28.828125 -5.867188 30.765625 -7.046875 C 32.710938 -8.234375 34.140625 -9.972656 35.046875 -12.265625 L 42.765625 -12.265625 C 42.179688 -10.398438 41.304688 -8.65625 40.140625 -7.03125 C 38.984375 -5.40625 37.585938 -3.984375 35.953125 -2.765625 C 34.316406 -1.554688 32.476562 -0.609375 30.4375 0.078125 C 28.394531 0.773438 26.21875 1.125 23.90625 1.125 C 20.945312 1.125 18.207031 0.570312 15.6875 -0.53125 C 13.164062 -1.644531 10.96875 -3.1875 9.09375 -5.15625 C 7.21875 -7.125 5.757812 -9.40625 4.71875 -12 C 3.675781 -14.601562 3.15625 -17.398438 3.15625 -20.390625 C 3.15625 -23.367188 3.675781 -26.15625 4.71875 -28.75 C 5.757812 -31.351562 7.21875 -33.640625 9.09375 -35.609375 C 10.96875 -37.585938 13.164062 -39.132812 15.6875 -40.25 C 18.207031 -41.363281 20.945312 -41.921875 23.90625 -41.921875 C 26.832031 -41.921875 29.523438 -41.375 31.984375 -40.28125 C 34.453125 -39.195312 36.585938 -37.691406 38.390625 -35.765625 C 40.191406 -33.847656 41.582031 -31.65625 42.5625 -29.1875 C 43.550781 -26.726562 44.046875 -24.128906 44.046875 -21.390625 Z M 10.4375 -24.65625 L 37.015625 -24.65625 C 36.910156 -26.09375 36.488281 -27.460938 35.75 -28.765625 C 35.019531 -30.078125 34.054688 -31.234375 32.859375 -32.234375 C 31.660156 -33.234375 30.28125 -34.019531 28.71875 -34.59375 C 27.15625 -35.164062 25.507812 -35.453125 23.78125 -35.453125 C 21.757812 -35.453125 19.828125 -35.035156 17.984375 -34.203125 C 16.148438 -33.378906 14.566406 -32.164062 13.234375 -30.5625 C 11.898438 -28.96875 10.96875 -27 10.4375 -24.65625 Z M 10.4375 -24.65625 "/></g></g></g><g fill="#616566" fill-opacity="1"><g transform="translate(58.518374, 60.588456)"><g><path d="M 24.46875 15.34375 C 21.03125 15.34375 18.097656 14.910156 15.671875 14.046875 C 13.242188 13.179688 11.25 12.019531 9.6875 10.5625 C 8.132812 9.113281 6.96875 7.492188 6.1875 5.703125 C 5.414062 3.921875 4.976562 2.097656 4.875 0.234375 L 11.390625 0.234375 C 11.660156 1.859375 12.253906 3.378906 13.171875 4.796875 C 14.085938 6.210938 15.457031 7.34375 17.28125 8.1875 C 19.113281 9.039062 21.507812 9.46875 24.46875 9.46875 C 27.101562 9.46875 29.34375 9.0625 31.1875 8.25 C 33.039062 7.4375 34.539062 6.332031 35.6875 4.9375 C 36.832031 3.539062 37.671875 1.960938 38.203125 0.203125 C 38.742188 -1.554688 39.015625 -3.382812 39.015625 -5.28125 L 39.015625 -10.3125 C 38.054688 -8.257812 36.773438 -6.519531 35.171875 -5.09375 C 33.578125 -3.664062 31.757812 -2.585938 29.71875 -1.859375 C 27.675781 -1.128906 25.5 -0.765625 23.1875 -0.765625 C 20.300781 -0.765625 17.644531 -1.289062 15.21875 -2.34375 C 12.800781 -3.394531 10.6875 -4.859375 8.875 -6.734375 C 7.0625 -8.609375 5.65625 -10.78125 4.65625 -13.25 C 3.65625 -15.71875 3.15625 -18.347656 3.15625 -21.140625 C 3.15625 -23.941406 3.644531 -26.585938 4.625 -29.078125 C 5.613281 -31.566406 7.007812 -33.769531 8.8125 -35.6875 C 10.613281 -37.613281 12.71875 -39.128906 15.125 -40.234375 C 17.539062 -41.335938 20.160156 -41.890625 22.984375 -41.890625 C 25.597656 -41.890625 27.957031 -41.441406 30.0625 -40.546875 C 32.164062 -39.660156 33.984375 -38.46875 35.515625 -36.96875 C 37.046875 -35.476562 38.210938 -33.828125 39.015625 -32.015625 L 39.015625 -40.765625 L 45.609375 -40.765625 L 45.609375 -5.46875 C 45.609375 -2.644531 45.175781 0.0195312 44.3125 2.53125 C 43.445312 5.050781 42.140625 7.269531 40.390625 9.1875 C 38.640625 11.113281 36.4375 12.617188 33.78125 13.703125 C 31.132812 14.796875 28.03125 15.34375 24.46875 15.34375 Z M 24.375 -6.828125 C 26.375 -6.828125 28.242188 -7.203125 29.984375 -7.953125 C 31.734375 -8.703125 33.257812 -9.734375 34.5625 -11.046875 C 35.875 -12.367188 36.898438 -13.894531 37.640625 -15.625 C 38.390625 -17.351562 38.765625 -19.191406 38.765625 -21.140625 C 38.765625 -23.085938 38.398438 -24.921875 37.671875 -26.640625 C 36.941406 -28.359375 35.914062 -29.875 34.59375 -31.1875 C 33.269531 -32.507812 31.742188 -33.550781 30.015625 -34.3125 C 28.285156 -35.070312 26.421875 -35.453125 24.421875 -35.453125 C 22.421875 -35.453125 20.546875 -35.09375 18.796875 -34.375 C 17.054688 -33.65625 15.523438 -32.648438 14.203125 -31.359375 C 12.890625 -30.066406 11.859375 -28.550781 11.109375 -26.8125 C 10.367188 -25.082031 10 -23.191406 10 -21.140625 C 10 -19.117188 10.367188 -17.238281 11.109375 -15.5 C 11.859375 -13.769531 12.882812 -12.253906 14.1875 -10.953125 C 15.488281 -9.648438 17.015625 -8.632812 18.765625 -7.90625 C 20.515625 -7.1875 22.382812 -6.828125 24.375 -6.828125 Z M 24.375 -6.828125 "/></g></g></g><g fill="#616566" fill-opacity="1"><g transform="translate(106.267782, 60.588456)"><g><path d="M 10 -48.71875 C 8.582031 -48.71875 7.453125 -49.144531 6.609375 -50 C 5.773438 -50.851562 5.359375 -51.894531 5.359375 -53.125 C 5.359375 -54.320312 5.773438 -55.347656 6.609375 -56.203125 C 7.453125 -57.054688 8.59375 -57.484375 10.03125 -57.484375 C 11.5 -57.484375 12.648438 -57.054688 13.484375 -56.203125 C 14.328125 -55.347656 14.75 -54.320312 14.75 -53.125 C 14.75 -51.894531 14.328125 -50.851562 13.484375 -50 C 12.648438 -49.144531 11.488281 -48.71875 10 -48.71875 Z M 13.46875 0 L 6.59375 0 L 6.59375 -40.765625 L 13.46875 -40.765625 Z M 13.46875 0 "/></g></g></g><g fill="#616566" fill-opacity="1"><g transform="translate(121.899609, 60.588456)"><g><path d="M 20.1875 1.15625 C 17.332031 1.15625 14.835938 0.773438 12.703125 0.015625 C 10.578125 -0.742188 8.804688 -1.769531 7.390625 -3.0625 C 5.984375 -4.351562 4.925781 -5.816406 4.21875 -7.453125 C 3.507812 -9.085938 3.15625 -10.773438 3.15625 -12.515625 L 9.796875 -12.46875 C 9.816406 -11 10.234375 -9.648438 11.046875 -8.421875 C 11.859375 -7.203125 13.035156 -6.234375 14.578125 -5.515625 C 16.128906 -4.796875 18.023438 -4.4375 20.265625 -4.4375 C 23.359375 -4.4375 25.691406 -5.039062 27.265625 -6.25 C 28.835938 -7.46875 29.625 -9.101562 29.625 -11.15625 C 29.625 -12.675781 29.207031 -13.867188 28.375 -14.734375 C 27.550781 -15.597656 26.375 -16.257812 24.84375 -16.71875 C 23.3125 -17.1875 21.476562 -17.597656 19.34375 -17.953125 C 17.445312 -18.242188 15.640625 -18.644531 13.921875 -19.15625 C 12.210938 -19.675781 10.691406 -20.390625 9.359375 -21.296875 C 8.023438 -22.203125 6.976562 -23.363281 6.21875 -24.78125 C 5.457031 -26.195312 5.078125 -27.929688 5.078125 -29.984375 C 5.078125 -32.210938 5.613281 -34.226562 6.6875 -36.03125 C 7.769531 -37.832031 9.394531 -39.265625 11.5625 -40.328125 C 13.738281 -41.390625 16.441406 -41.921875 19.671875 -41.921875 C 22.804688 -41.921875 25.546875 -41.394531 27.890625 -40.34375 C 30.242188 -39.289062 32.070312 -37.84375 33.375 -36 C 34.675781 -34.164062 35.328125 -32.066406 35.328125 -29.703125 L 28.578125 -29.703125 C 28.472656 -31.640625 27.640625 -33.203125 26.078125 -34.390625 C 24.523438 -35.578125 22.390625 -36.171875 19.671875 -36.171875 C 17.910156 -36.171875 16.457031 -35.894531 15.3125 -35.34375 C 14.164062 -34.800781 13.304688 -34.070312 12.734375 -33.15625 C 12.160156 -32.238281 11.875 -31.234375 11.875 -30.140625 C 11.875 -28.859375 12.160156 -27.800781 12.734375 -26.96875 C 13.304688 -26.144531 14.300781 -25.472656 15.71875 -24.953125 C 17.144531 -24.441406 19.125 -23.972656 21.65625 -23.546875 C 23.53125 -23.253906 25.359375 -22.875 27.140625 -22.40625 C 28.921875 -21.9375 30.523438 -21.273438 31.953125 -20.421875 C 33.378906 -19.566406 34.507812 -18.421875 35.34375 -16.984375 C 36.1875 -15.546875 36.609375 -13.722656 36.609375 -11.515625 C 36.609375 -8.742188 35.914062 -6.410156 34.53125 -4.515625 C 33.144531 -2.617188 31.21875 -1.195312 28.75 -0.25 C 26.289062 0.6875 23.4375 1.15625 20.1875 1.15625 Z M 20.1875 1.15625 "/></g></g></g></g></g><g clip-path="url(#4c578be501)"><path fill="#616566" d="M 70.550781 192.679688 L 103.894531 159.335938 L 137.238281 192.679688 L 147.527344 182.390625 L 103.894531 138.757812 L 60.257812 182.390625 Z M 70.550781 192.679688 " fill-opacity="1" fill-rule="nonzero"/></g></svg>